<svg
  aria-hidden="true"
  style="position: absolute; width: 0; height: 0; overflow: hidden"
  xmlns="http://www.w3.org/2000/svg"
>
  <symbol xmlns="http://www.w3.org/2000/svg" viewBox="0 0 20 20" id="close">
    <path fill="currentColor"
          d="M10 19C14.9706 19 19 14.9706 19 10C19 5.02944 14.9706 1 10 1C5.02944 1 1 5.02944 1 10C1 14.9706 5.02944 19 10 19ZM12.1208 6.46428C12.5113 6.07376 13.1445 6.07376 13.535 6.46428C13.9255 6.8548 13.9255 7.48797 13.535 7.87849L11.4135 10L13.5349 12.1214C13.9254 12.5119 13.9254 13.145 13.5349 13.5356C13.1443 13.9261 12.5112 13.9261 12.1206 13.5356L9.99929 11.4142L7.87816 13.5353C7.48763 13.9259 6.85447 13.9259 6.46394 13.5353C6.07342 13.1448 6.07342 12.5117 6.46394 12.1211L8.58508 10L6.46379 7.87871C6.07327 7.48819 6.07327 6.85502 6.46379 6.4645C6.85432 6.07398 7.48748 6.07398 7.87801 6.4645L9.99929 8.58579L12.1208 6.46428Z" />
  </symbol>

  <symbol xmlns="http://www.w3.org/2000/svg" viewBox="0 0 24 24" id="user">
    <rect x="2" y="2" width="20" height="20" rx="10" fill="#3E4DD3" />
    <path
      d="M12 13.3334C12.8837 13.3324 13.7309 12.9808 14.3558 12.3559C14.9807 11.731 15.3323 10.8838 15.3333 10.0001C15.3323 9.11635 14.9807 8.26912 14.3558 7.64423C13.7309 7.01934 12.8837 6.66781 12 6.66675C11.1163 6.66781 10.269 7.01934 9.64413 7.64423C9.01924 8.26912 8.66771 9.11635 8.66665 10.0001C8.66771 10.8838 9.01924 11.731 9.64413 12.3559C10.269 12.9808 11.1163 13.3324 12 13.3334ZM12 8.00008C12.5304 8.00008 13.0391 8.2108 13.4142 8.58587C13.7893 8.96094 14 9.46965 14 10.0001C14 10.5305 13.7893 11.0392 13.4142 11.4143C13.0391 11.7894 12.5304 12.0001 12 12.0001C11.4695 12.0001 10.9608 11.7894 10.5858 11.4143C10.2107 11.0392 9.99998 10.5305 9.99998 10.0001C9.99998 9.46965 10.2107 8.96094 10.5858 8.58587C10.9608 8.2108 11.4695 8.00008 12 8.00008ZM16.4 16.1334C15.1326 15.1776 13.5874 14.6625 12 14.6667C10.4126 14.6626 8.86741 15.1777 7.59998 16.1334C7.45853 16.2395 7.36502 16.3974 7.34002 16.5725C7.31501 16.7475 7.36056 16.9253 7.46665 17.0667C7.57274 17.2082 7.73067 17.3017 7.9057 17.3267C8.08074 17.3517 8.25853 17.3062 8.39998 17.2001C9.43666 16.4175 10.7011 15.996 12 16.0001C13.2989 15.996 14.5633 16.4175 15.6 17.2001C15.7154 17.2866 15.8557 17.3334 16 17.3334C16.1035 17.3334 16.2056 17.3093 16.2981 17.263C16.3907 17.2167 16.4712 17.1495 16.5333 17.0667C16.5858 16.9967 16.6241 16.917 16.6458 16.8322C16.6675 16.7474 16.6723 16.6591 16.6599 16.5725C16.6476 16.4858 16.6182 16.4024 16.5736 16.3271C16.529 16.2518 16.47 16.1859 16.4 16.1334Z"
      fill="white" />
  </symbol>
</svg>
